<svg width="26" height="38" viewBox="0 0 26 38" fill="none" xmlns="http://www.w3.org/2000/svg">
<path d="M24.8919 4.10239C24.5676 3.60575 24.0938 3.59149 23.554 3.57523C23.4928 3.57339 23.4308 3.57153 23.368 3.56893C23.3203 3.56673 23.2675 3.56758 23.2124 3.56846C22.9935 3.57198 22.7373 3.57609 22.6083 3.39212C22.4587 3.17883 22.4729 2.76663 22.4846 2.42635C22.4883 2.31882 22.4918 2.21841 22.4897 2.1338C22.4687 1.34332 22.4249 0.503628 22.1197 0.22292C21.8896 0.0123098 21.2012 0.041487 20.5664 0.0683954C20.3606 0.0771184 20.1604 0.085603 19.9833 0.085603H6.4704C6.19833 0.085603 5.91313 0.0634489 5.63291 0.0416813C5.08689 -0.000733808 4.55976 -0.0416812 4.18544 0.085603C3.64218 0.271231 3.6054 1.24667 3.57076 2.16519L3.5689 2.21461C3.53982 2.97288 3.3519 3.55799 2.72909 3.49906C2.00472 3.43161 1.28394 3.41035 0.956425 4.06594C0.569628 4.84161 0.649401 5.65358 0.792286 7.10792C0.812696 7.31567 0.834394 7.53652 0.856204 7.77225H25.1009C25.1147 7.59995 25.1295 7.42986 25.144 7.26253C25.2575 5.95406 25.3565 4.81402 24.8919 4.10239Z" fill="#8047F8"/>
<path fill-rule="evenodd" clip-rule="evenodd" d="M2.74431 9.21467C3.12296 14.3395 3.49748 19.4701 3.87201 24.6009L3.87224 24.604C4.07559 27.3898 4.27895 30.1757 4.48297 32.9606H5.25656C5.30927 33.3965 5.36959 33.9347 5.43318 34.5021C5.56227 35.6539 5.70488 36.9264 5.82478 37.7083H5.91034C6.6983 37.42 12.1456 35.0916 12.148 25.8218C12.147 25.7954 12.1479 25.7689 12.1507 25.7427H10.8049C10.7397 25.7421 10.6766 25.7203 10.6251 25.6808C10.5737 25.6413 10.5368 25.5861 10.5202 25.5238C10.3891 25.1999 10.2833 24.8664 10.2039 24.5264C9.41221 24.9736 8.7835 25.6564 8.4074 26.4775C8.05038 25.6365 8.00365 24.6983 8.27537 23.8267C8.5471 22.9551 9.12 22.2057 9.89396 21.7093C9.90393 19.0043 10.9167 16.3968 12.7406 14.3804L12.769 14.3553C12.822 14.3095 12.8899 14.284 12.9603 14.2834C13.001 14.2838 13.0412 14.2925 13.0783 14.309C13.1159 14.3257 13.1496 14.35 13.177 14.3804C15.0222 16.3996 16.0296 19.0321 15.9984 21.7531C16.7868 22.2356 17.3713 22.9845 17.6435 23.8608C17.9158 24.7371 17.8572 25.6813 17.4786 26.5181C17.1045 25.6957 16.4753 25.0123 15.6821 24.5671C15.6336 24.8966 15.5444 25.219 15.4164 25.527C15.3721 25.6583 15.2835 25.7427 15.195 25.7427H13.7598C13.762 25.7584 13.7636 25.7742 13.7646 25.7901L13.7651 25.7937V25.8014C13.7656 25.815 13.7656 25.8287 13.7652 25.8424C13.7848 35.3783 19.5764 37.5428 20.0647 37.7083H20.2316C20.2743 36.9572 20.413 35.9208 20.5483 34.9104C20.6416 34.2142 20.7331 33.5302 20.7905 32.9606H21.573C21.8234 29.4527 22.0811 25.9546 22.3387 22.4564L22.3388 22.4545L22.3389 22.4535C22.6684 17.9789 22.9979 13.5042 23.3125 9.0087H2.79442C2.73536 9.02024 2.73938 9.11685 2.74431 9.21467ZM12.9603 14.2834L12.9588 14.2834H12.962L12.9603 14.2834Z" fill="#8047F8"/>
</svg>
